<!--?xml version="1.0" standalone="no"?-->
              <svg id="sw-js-blob-svg" viewBox="0 0 100 100" xmlns="http://www.w3.org/2000/svg" version="1.1">
                    <defs> 
                        <linearGradient id="sw-gradient" x1="0" x2="1" y1="1" y2="0">
                            <stop id="stop1" stop-color="rgba(248, 117, 55, 1)" offset="0%"></stop>
                            <stop id="stop2" stop-color="rgba(251, 168, 31, 1)" offset="100%"></stop>
                        </linearGradient>
                    </defs>
                <path fill="url(#sw-gradient)" d="M14.4,-19.6C20.8,-18.3,29.5,-17.9,34.4,-13.8C39.3,-9.6,40.4,-1.8,39.1,5.4C37.8,12.7,34,19.4,28.5,23.4C23,27.3,15.9,28.5,9.9,27.5C3.9,26.4,-1,23.2,-5.2,20.6C-9.4,18.1,-13,16.3,-16,13.5C-18.9,10.7,-21.2,7.1,-24.6,1.8C-28,-3.4,-32.5,-10.2,-31,-14.4C-29.4,-18.6,-21.8,-20.4,-15.6,-21.7C-9.5,-23,-4.7,-23.9,-0.4,-23.3C4,-22.8,8,-20.8,14.4,-19.6Z" width="100%" height="100%" transform="translate(50 50)" style="transition: all 0.3s ease 0s;" stroke-width="0"></path>
              </svg>