<!--?xml version="1.0" standalone="no"?-->
              <svg id="sw-js-blob-svg" viewBox="0 0 100 100" xmlns="http://www.w3.org/2000/svg" version="1.1">
                    <defs> 
                        <linearGradient id="sw-gradient" x1="0" x2="1" y1="1" y2="0">
                            <stop id="stop1" stop-color="rgba(248, 117, 55, 1)" offset="0%"></stop>
                            <stop id="stop2" stop-color="rgba(251, 168, 31, 1)" offset="100%"></stop>
                        </linearGradient>
                    </defs>
                <path fill="url(#sw-gradient)" d="M20.1,-30.5C25.1,-28.1,27.6,-20.9,31.8,-13.9C36,-6.8,41.9,0,42.5,7.1C43.1,14.3,38.3,21.6,32.5,28.1C26.8,34.7,20.2,40.4,13.5,39.3C6.8,38.3,0,30.6,-8.5,28.3C-17,26.1,-27.4,29.4,-32.6,26.5C-37.8,23.6,-37.9,14.5,-36,7.1C-34.1,-0.4,-30.2,-6.2,-27.4,-12.6C-24.6,-19.1,-23,-26.2,-18.6,-28.9C-14.2,-31.6,-7.1,-30,0.2,-30.3C7.5,-30.7,15.1,-32.9,20.1,-30.5Z" width="100%" height="100%" transform="translate(50 50)" style="transition: all 0.3s ease 0s;" stroke-width="0"></path>
              </svg>