<?xml version="1.0" encoding="UTF-8" standalone="no"?>
<!-- Created with Inkscape (http://www.inkscape.org/) -->

<svg
   width="1366"
   height="768"
   viewBox="0 0 361.42083 203.2"
   version="1.1"
   id="svg5"
   inkscape:version="1.1 (c68e22c387, 2021-05-23)"
   sodipodi:docname="holka.svg"
   xmlns:inkscape="http://www.inkscape.org/namespaces/inkscape"
   xmlns:sodipodi="http://sodipodi.sourceforge.net/DTD/sodipodi-0.dtd"
   xmlns="http://www.w3.org/2000/svg"
   xmlns:svg="http://www.w3.org/2000/svg">
  <sodipodi:namedview
     id="namedview7"
     pagecolor="#ffffff"
     bordercolor="#cccccc"
     borderopacity="1"
     inkscape:pageshadow="0"
     inkscape:pageopacity="1"
     inkscape:pagecheckerboard="0"
     inkscape:document-units="px"
     showgrid="false"
     inkscape:lockguides="true"
     inkscape:zoom="0.96744792"
     inkscape:cx="1352.5276"
     inkscape:cy="311.12786"
     inkscape:window-width="2400"
     inkscape:window-height="1434"
     inkscape:window-x="2391"
     inkscape:window-y="-9"
     inkscape:window-maximized="1"
     inkscape:current-layer="layer1" />
  <defs
     id="defs2" />
  <g
     inkscape:label="Vrstva 1"
     inkscape:groupmode="layer"
     id="layer1">
    <path
       d="m 194.07901,33.120107 c -0.58208,0.388056 -0.79375,0.776112 -0.68792,1.252362 0.15875,0.546805 0,0.687916 -0.72319,0.687916 -2.15195,0 -4.1275,1.834445 -3.40431,3.175001 0.22931,0.405694 0.74084,0.705555 1.25236,0.705555 1.07598,0 1.09362,0.246945 0.0706,1.058334 -0.44097,0.352777 -1.11125,1.252361 -1.48167,1.993194 -1.21708,2.363611 -6.68514,7.390695 -9.91305,9.119306 -1.905,1.005417 -2.45181,1.605139 -1.81681,2.010834 0.635,0.405694 1.65806,0.335139 1.65806,-0.105834 0,-0.211666 -0.24695,-0.299861 -0.54681,-0.176388 -0.33514,0.123472 -0.45861,0.05292 -0.3175,-0.176389 0.12347,-0.194028 0.44097,-0.282223 0.70556,-0.176389 0.26458,0.105833 0.93486,-0.05292 1.46402,-0.335139 0.54681,-0.282222 1.23473,-0.493889 1.51695,-0.47625 0.35278,0.01764 0.38805,0.07055 0.0882,0.194028 -0.51152,0.211666 -0.59972,0.829027 -0.10583,0.829027 0.17639,0 0.56444,-0.246944 0.88194,-0.564444 0.29987,-0.299861 0.74084,-0.493889 0.9525,-0.423333 0.22931,0.08819 -0.74083,0.829027 -2.11666,1.658055 -2.80459,1.693334 -2.99861,1.887361 -1.46403,1.446389 1.35819,-0.388055 1.34056,0.01764 -0.0882,1.446389 -0.635,0.635 -1.14653,1.393472 -1.14653,1.693334 0,0.299861 -0.49389,0.864305 -1.09361,1.27 -0.59973,0.388055 -1.28764,1.146528 -1.53459,1.675694 -0.2293,0.529167 -0.58208,0.970139 -0.77611,0.970139 -0.21166,0 -0.65264,0.352778 -1.00541,0.79375 -0.45862,0.564445 -1.02306,0.79375 -1.9932,0.79375 -0.75847,0 -1.35819,0.176389 -1.35819,0.388056 0,0.405694 -2.09903,2.54 -2.57528,2.610556 -0.14111,0.03528 -0.7232,0.264583 -1.30528,0.529166 -0.58208,0.246945 -1.27,0.529167 -1.51694,0.599723 -0.67028,0.176388 -4.72723,3.792361 -5.82084,5.185833 -0.9525,1.217084 -1.41111,3.457223 -0.52916,2.575278 0.2293,-0.229305 0.88194,-0.423333 1.42875,-0.423333 0.72319,0 0.93486,-0.123472 0.74083,-0.440972 -0.19403,-0.335139 -0.14111,-0.352778 0.24694,-0.03528 0.98778,0.79375 5.11528,0.07055 6.33236,-1.11125 0.93487,-0.899584 1.18181,-0.970139 1.76389,-0.599723 1.0407,0.635 1.76389,0.511528 2.68112,-0.458611 0.77611,-0.846666 2.20486,-1.164166 2.75166,-0.635 0.12347,0.141111 0.88195,0.211667 1.6757,0.141111 1.12889,-0.07055 1.37583,0 1.14652,0.370417 -0.21166,0.388056 -0.17638,0.388056 0.24695,0.05292 1.07597,-0.864306 1.48167,0.03528 1.5875,3.474861 0.15875,5.344584 2.29305,14.728473 4.70958,20.743335 0.75847,1.852083 1.92264,4.709585 2.6282,6.367635 0.68791,1.64042 1.25236,3.2632 1.27,3.59834 0,0.3175 0.14111,0.68791 0.3175,0.79375 0.19403,0.10583 0.44097,0.72319 0.58208,1.34055 0.4057,1.85208 1.32292,3.28083 2.01083,3.15736 0.44098,-0.0882 0.54681,0.0353 0.4057,0.44097 -0.22931,0.59973 0.38805,0.75848 0.74083,0.19403 0.3175,-0.51153 1.23472,-0.42333 1.23472,0.12347 0,0.65264 -2.25777,2.92806 -3.63361,3.65126 -0.84666,0.45861 -0.98777,0.635 -0.52916,0.72319 1.12889,0.24694 5.02708,-0.98778 6.50875,-2.04611 0.81139,-0.56445 1.69333,-1.0407 1.94027,-1.0407 0.67028,0 -1.19944,1.21709 -4.37444,2.83987 -2.15194,1.09361 -3.10444,1.39347 -4.58611,1.39347 -2.2225,0 -4.26861,0.52916 -4.86834,1.25236 -0.37041,0.45861 0,0.49389 3.13973,0.28222 2.80458,-0.17639 3.58069,-0.12347 3.58069,0.22931 0,0.29986 -0.35278,0.38805 -1.16416,0.24694 -1.0407,-0.15875 -1.21709,-0.0705 -1.56987,0.84667 -0.21166,0.56444 -0.24694,0.9525 -0.0882,0.84666 0.15875,-0.0882 0.21167,0.14112 0.10583,0.51153 -0.14111,0.54681 -0.38805,0.65264 -1.14653,0.49389 -0.93486,-0.17639 -0.98777,-0.14111 -0.98777,1.25236 0,0.79375 0.15875,1.44639 0.33514,1.44639 0.17638,0 0.2293,0.14111 0.12347,0.3175 -0.10584,0.19403 0.0529,0.58208 0.35278,0.88195 0.49388,0.49388 0.49388,0.56444 0.0176,0.56444 -0.68791,0 -1.34055,1.18181 -1.05833,1.92264 0.12347,0.3175 0.0353,0.5468 -0.21167,0.5468 -0.35277,0 -0.35277,0.10584 0,0.52917 0.33514,0.4057 0.33514,0.52917 0.0176,0.52917 -1.12889,0 -1.79916,1.60514 -1.00541,2.39889 0.51152,0.51153 1.11125,0.56444 0.81139,0.0705 -0.12348,-0.19402 -0.0529,-0.35278 0.15875,-0.35278 0.45861,0 0.45861,-0.10583 -0.14112,1.58751 -0.28222,0.77611 -0.52916,1.905 -0.52916,2.52236 -0.0176,0.88194 -0.26459,1.25236 -1.25236,1.83444 -2.08139,1.23472 -1.49931,2.36361 1.32291,2.57528 1.34056,0.10583 1.6757,0.0176 1.6757,-0.42333 0,-0.29987 0.17639,-0.7232 0.38805,-0.93487 0.26459,-0.26458 0.28223,-0.58208 0.0176,-1.07597 -0.29986,-0.56444 -0.2293,-0.75847 0.4057,-1.11125 0.82902,-0.44097 1.85208,-2.94569 1.28764,-3.15736 -0.4057,-0.14111 0.14111,-1.21708 1.46402,-2.91042 0.70556,-0.89958 0.88195,-1.37583 0.61737,-1.64041 -0.28223,-0.28223 -0.12348,-0.65264 0.56444,-1.34056 0.51153,-0.51153 1.09361,-1.32292 1.27,-1.78153 0.17639,-0.47625 0.52917,-0.84666 0.79375,-0.84666 1.62278,0 3.75708,-4.05695 2.27542,-4.33917 -0.51153,-0.0882 -0.3175,-0.17639 0.49389,-0.19403 1.35819,-0.0529 2.7693,-1.60514 2.7693,-3.06916 0,-0.33514 0.79375,-1.79917 1.76389,-3.22792 0.97014,-1.42875 1.76389,-2.75167 1.76389,-2.92806 0,-0.17639 0.45861,-0.84666 1.00542,-1.48166 0.5468,-0.635 1.5875,-2.08139 2.29305,-3.19264 0.70556,-1.11125 1.41111,-2.02848 1.56986,-2.02848 1.18181,0 5.66209,8.83709 5.75028,11.37709 0.12347,2.94569 0.88195,2.71639 3.51014,-1.05833 0.58208,-0.82903 1.28764,-1.49931 1.5875,-1.49931 0.98778,0 -0.91722,3.03389 -3.81,6.05014 -0.33514,0.37042 -0.86431,0.65264 -1.14653,0.65264 -0.82903,0 -0.61736,0.68791 0.29986,1.04069 0.45861,0.17639 0.93486,0.58209 1.05834,0.88195 0.26458,0.67027 1.64041,0.14111 1.64041,-0.61736 0,-0.24695 0.45861,-0.47625 1.02306,-0.52917 0.82903,-0.0529 1.00542,0.0529 0.8643,0.5468 -0.14111,0.54681 0.10584,0.61737 1.88737,0.58209 2.7693,-0.0529 2.80458,-0.0706 2.02847,-0.65264 -0.67028,-0.51153 -0.67028,-0.52917 0.14111,-0.52917 0.635,-0.0176 0.77611,-0.15875 0.59972,-0.59972 -0.28222,-0.77611 0.38806,-1.16417 2.01084,-1.18181 0.72319,0 1.32291,-0.15875 1.32291,-0.35277 0,-0.44098 -0.89958,-0.45861 -2.38125,-0.0176 -1.51694,0.42333 -1.69333,-0.0176 -0.61736,-1.5875 0.47625,-0.7232 0.88195,-1.53459 0.88195,-1.81681 0,-0.79375 -1.11126,-3.96875 -1.3582,-3.89819 -1.23472,0.38805 -2.13431,-2.13431 -1.28764,-3.61598 0.54681,-0.9525 0.70556,-3.175 0.22931,-3.175 -0.89959,0 -1.16417,-2.92805 -0.33514,-3.66888 0.74083,-0.65264 0.81139,-0.9525 0.65264,-2.663475 l -0.19403,-1.905 -1.00542,1.446389 c -0.5468,0.79375 -1.32291,1.728606 -1.74625,2.081386 -0.635,0.54681 -0.59972,0.44097 0.15875,-0.58208 1.39347,-1.905001 2.43417,-4.127501 2.20486,-4.744862 -0.14111,-0.352778 -0.0176,-0.546806 0.35278,-0.546806 0.635,0 0.77611,-0.934861 0.17639,-1.128889 -0.21167,-0.07055 -0.52917,-0.758472 -0.68792,-1.534583 -0.15875,-0.758472 -0.40569,-1.869722 -0.5468,-2.451806 -0.12347,-0.582083 -0.58209,-1.464028 -1.02306,-1.940278 -1.53458,-1.710972 -2.32833,-4.885972 -1.65805,-6.702778 l 0.28222,-0.758472 0.8643,0.723194 c 0.47625,0.388056 0.74084,0.723195 0.58209,0.723195 -0.77611,0.03528 5.3093,7.990417 7.81403,10.195278 0.51152,0.458611 1.76389,1.552223 2.78694,2.434167 2.02847,1.728611 2.20486,2.257778 1.14653,3.175 -0.88195,0.758473 -0.89958,1.146528 -0.0353,1.146528 0.7232,0 1.09361,-0.652639 1.09361,-1.975555 0,-0.458612 0.15875,-0.846667 0.35278,-0.846667 0.19403,0 0.35278,0.282222 0.35278,0.617361 0.0176,0.529167 0.0529,0.546806 0.35278,0.08819 0.52916,-0.811389 0.45861,-2.010833 -0.0706,-1.481666 -0.79375,0.79375 -0.97014,0.423333 -0.40569,-0.776112 0.61736,-1.305277 0.37041,-1.905 -1.02306,-2.416527 -0.86431,-0.335139 -0.79375,-1.075973 0.0882,-0.793751 1.25237,0.388056 0.81139,-0.970138 -0.84666,-2.681111 -1.27,-1.322917 -1.62278,-1.993194 -2.09903,-4.039306 -0.52917,-2.38125 -2.18722,-6.861528 -2.64583,-7.214306 -0.12348,-0.105833 -0.44098,-0.599722 -0.7232,-1.11125 -0.28222,-0.564444 -0.67028,-0.864305 -0.97014,-0.758472 -0.3175,0.123472 -0.47625,-0.08819 -0.47625,-0.582083 0,-0.423334 -0.15875,-0.670278 -0.35277,-0.546806 -0.19403,0.123472 -0.35278,0.08819 -0.35278,-0.08819 0,-0.176389 -0.29986,-0.635 -0.67028,-1.023056 -0.7232,-0.776111 -2.50472,-4.339167 -2.50472,-5.009445 0,-0.229305 -0.12348,-0.405694 -0.26459,-0.405694 -0.14111,0 -0.56444,-0.987778 -0.93486,-2.204861 -0.68791,-2.222501 -2.73403,-6.385279 -3.56305,-7.267223 -0.56445,-0.599722 -0.9525,1.217083 -0.88195,4.1275 0.0706,2.663473 0.0882,2.645834 -0.5468,2.010834 -0.75848,-0.740834 -1.64042,-0.687917 -2.38125,0.176388 -0.33514,0.388056 -0.79375,0.599723 -1.02306,0.476251 -0.26458,-0.176389 -0.17639,-0.405695 0.26458,-0.723195 0.35278,-0.264583 0.49389,-0.493889 0.3175,-0.511528 -0.19402,-0.01764 0.0706,-0.15875 0.54681,-0.3175 0.86431,-0.282222 0.86431,-0.299861 0.10583,-0.529167 -1.25236,-0.405694 -1.34055,-1.234722 -0.0882,-0.881944 1.28764,0.370417 1.41111,-0.229306 0.14111,-0.705556 -0.86431,-0.335139 -0.88194,-0.370416 -0.3175,-1.446389 0.58208,-1.11125 0.51153,-1.622777 -0.17639,-1.217083 -0.21167,0.141111 -0.28222,0.388056 -0.17639,0.564444 0.10584,0.194028 0.0353,0.335139 -0.15875,0.335139 -0.70555,0 -0.74083,-0.687916 -0.0529,-1.040694 0.79375,-0.440972 -0.3175,-3.545417 -1.27,-3.545417 -0.22931,0 -0.52917,-0.299861 -0.635,-0.670278 -0.24695,-0.776111 -0.89959,-1.128889 -2.96334,-1.5875 -0.44097,-0.105833 -1.12889,-0.282222 -1.53458,-0.405694 -0.59972,-0.194028 -0.67028,-0.105834 -0.49389,0.599722 0.10583,0.458611 0.10583,0.617361 0,0.370417 -0.15875,-0.352778 -0.3175,-0.352778 -0.70556,-0.03528 -0.38805,0.3175 -0.49389,0.282222 -0.49389,-0.176389 0,-0.335139 -0.28222,-0.564445 -0.72319,-0.564445 -0.38806,0 -0.81139,-0.246944 -0.91722,-0.564444 -0.12347,-0.299861 -0.61736,-0.687917 -1.09361,-0.881945 -0.635,-0.229305 -0.79375,-0.493889 -0.635,-0.934861 0.28222,-0.723194 0.29986,-0.758472 0.2293,-1.605139 -0.0176,-0.352778 -0.19403,-0.546805 -0.38805,-0.423333 -0.19403,0.123472 -0.24695,-0.01764 -0.14111,-0.335139 0.26458,-0.687917 0.65263,-0.687917 1.32291,-0.03528 0.45861,0.458611 0.54681,0.458611 0.74084,-0.08819 0.2293,-0.564445 0.28222,-0.564445 0.72319,0.05292 0.75847,1.023056 1.37583,-0.47625 1.12889,-2.804583 -0.15875,-1.516945 -0.10583,-1.834445 0.3175,-1.675695 0.37042,0.15875 0.49389,-0.141111 0.49389,-1.27 0,-0.881944 -0.14111,-1.375833 -0.35278,-1.252361 -0.19403,0.123472 -0.35278,0.529167 -0.35278,0.899583 0,0.388056 -0.15875,0.687917 -0.35278,0.687917 -0.49388,0 -0.44097,-1.181805 0.0706,-1.693333 0.61736,-0.617361 1.60514,-0.511528 2.04611,0.194028 0.29986,0.511527 0.35278,0.405694 0.3175,-0.617362 -0.0353,-0.687916 0.0529,-1.516944 0.19403,-1.852083 0.33514,-0.758472 -0.82903,-3.210278 -2.2225,-4.744861 -0.56445,-0.617362 -0.14968,-0.515184 -0.88195,-1.270001 -2.43242,-1.310904 -5.66498,-1.54605 -7.65353,-0.209712 -0.0826,0.765796 -0.71592,0.552679 -1.16582,0.844717 z m 5.87377,19.244018 c 0.26458,1.023056 -0.42333,0.846667 -0.81139,-0.211666 -0.47625,-1.217084 -0.44097,-1.375834 0.14111,-0.899584 0.26459,0.229306 0.56445,0.723195 0.67028,1.11125 z m 10.67153,4.480279 c -0.0529,0.335138 0.0529,0.811388 0.2293,1.040694 0.4057,0.511528 -0.49388,2.010834 -0.97013,1.605139 -0.17639,-0.141111 -0.10584,0 0.14111,0.335139 0.26458,0.335139 0.37041,0.758472 0.26458,0.934861 -0.12347,0.194028 -0.0176,0.423333 0.22931,0.529167 0.24694,0.08819 -0.0706,0.105833 -0.68792,0.05292 -0.635,-0.07055 -1.28764,-0.211666 -1.46403,-0.3175 -0.49389,-0.299861 -0.0353,-1.975555 0.54681,-1.975555 0.3175,0 0.45861,-0.211667 0.33514,-0.493889 -0.10584,-0.282222 0.0353,-0.599722 0.3175,-0.705556 0.28222,-0.105833 0.51152,-0.599722 0.51152,-1.11125 0,-0.493889 0.14111,-0.811389 0.3175,-0.705555 0.17639,0.105833 0.28223,0.47625 0.22931,0.811389 z m -2.3107,4.674305 c 0.59973,0.3175 0.61737,0.440973 0.15875,1.322917 -0.28222,0.529167 -0.51152,1.27 -0.51152,1.622778 0,0.370417 -0.47625,1.252361 -1.05834,1.993195 -0.58208,0.740833 -1.05833,1.42875 -1.05833,1.552222 0,0.123472 -0.3175,0.529167 -0.70556,0.917222 -0.38805,0.388056 -0.70555,0.934861 -0.70555,1.217084 0,0.264583 -0.28222,0.582083 -0.61736,0.705555 -0.33514,0.105834 -0.91723,0.829028 -1.28764,1.5875 -0.37042,0.776111 -0.9525,1.728612 -1.32292,2.099028 -0.35278,0.388056 -0.65264,0.864306 -0.65264,1.040695 0,0.176389 -0.24694,0.511528 -0.52916,0.758472 -0.29987,0.246944 -0.47625,0.529167 -0.37042,0.635 0.21167,0.211667 -1.37583,1.481667 -1.88736,1.481667 -0.21167,0 -0.38806,0.176389 -0.38806,0.370416 0,0.211667 0.19403,0.264584 0.44097,0.105834 0.24695,-0.141111 -0.0705,0.335139 -0.70555,1.058333 -0.635,0.723195 -1.14653,1.552223 -1.14653,1.834445 0,0.282222 -0.14111,0.511528 -0.3175,0.511528 -0.38805,0 -1.12889,3.192639 -0.84667,3.65125 0.10584,0.15875 -0.0176,0.440972 -0.26458,0.599722 -0.26458,0.15875 -0.47625,0.934861 -0.49389,1.728611 -0.0176,0.917223 -0.17639,1.42875 -0.47625,1.42875 -0.67028,0 -0.9525,1.075973 -0.38805,1.446389 0.37041,0.229306 0.29986,0.299862 -0.28223,0.3175 -0.42333,0 -1.00541,-0.246944 -1.32291,-0.546805 -0.7232,-0.740834 -0.68792,-0.9525 0.12347,-0.705556 0.68792,0.229306 2.04611,-3.01625 1.5875,-3.757083 -0.10583,-0.15875 0.0706,-0.388056 0.37042,-0.493889 0.29986,-0.123473 0.5468,-0.352778 0.5468,-0.529167 0,-0.15875 -0.2293,-0.211667 -0.52916,-0.08819 -0.37042,0.141111 -0.52917,-0.03528 -0.52917,-0.564445 0,-0.423333 -0.15875,-0.670278 -0.35278,-0.546806 -0.19403,0.123473 -0.24694,-0.01764 -0.14111,-0.335138 0.12347,-0.299862 0.0353,-0.546806 -0.19403,-0.546806 -0.2293,0 -0.29986,-0.176389 -0.17639,-0.370417 0.12348,-0.211666 0.45861,-0.299861 0.74084,-0.194027 0.33514,0.141111 0.56444,-0.123473 0.70555,-0.829028 0.15875,-0.776111 0.37042,-0.987778 0.88195,-0.881945 0.37041,0.07056 0.58208,-0.01764 0.47625,-0.194028 -0.10584,-0.176389 0.52916,-1.093611 1.41111,-2.010833 0.89958,-0.934861 1.94028,-2.257778 2.31069,-2.928056 0.38806,-0.687917 1.41111,-2.345972 2.29306,-3.704167 0.8643,-1.358194 1.85208,-2.980972 2.16958,-3.615972 0.3175,-0.635 0.7232,-1.146528 0.88195,-1.146528 0.15875,0 0.28222,-0.211667 0.28222,-0.493889 0,-0.264583 0.2293,-0.670278 0.51153,-0.917222 0.29986,-0.229306 0.635,-0.9525 0.74083,-1.605139 0.12347,-0.635 0.45861,-1.252361 0.72319,-1.358195 0.26459,-0.105833 0.49389,-0.599722 0.49389,-1.075972 0,-0.970139 0.37042,-1.11125 1.41111,-0.546806 z m 7.40834,14.816668 c 0.33514,0.617361 0.26458,0.705556 -0.49389,0.705556 -0.93486,0 -1.44639,-0.493889 -1.09361,-1.058334 0.35278,-0.582083 1.1818,-0.405694 1.5875,0.352778 z"
       id="path1044"
       style="fill:#000000;stroke:none;stroke-width:0.0176389"
       sodipodi:nodetypes="ccscscccssccscccsscccssccscssccccssccccccccccccccccccscccscsccscccccsscsscscsscsccccssccccsscsccssssssccscsscscccccccsccsccscccccccscccccccccccsssccsccccccccssscsscccccccccccccccscscccccsssccccsccccccscssscccccccccccscccccccscsssssscssssscccscssscssscccsccccccscsscsccccscccsssccsssscscc" />
    <path
       d="m 155.76736,72.94871 c -0.17639,0.458611 -0.49389,0.9525 -0.72319,1.093611 -0.21167,0.123473 -0.3175,0.493889 -0.22931,0.829028 0.0882,0.3175 0.26458,1.023056 0.37042,1.552222 0.15875,0.652639 0.65264,1.181806 1.5875,1.658056 l 1.37583,0.705556 -0.21167,-0.79375 c -0.17638,-0.687917 -0.12347,-0.723195 0.4057,-0.299861 0.51153,0.440972 0.58208,0.388055 0.58208,-0.440973 0,-0.687916 -0.17639,-0.917222 -0.72319,-0.917222 -0.58209,0 -0.68792,-0.15875 -0.49389,-0.740833 0.2293,-0.758473 -0.81139,-3.474862 -1.34056,-3.492501 -0.15875,0 -0.42333,0.388056 -0.59972,0.846667 z"
       id="path1054"
       style="fill:#000000;stroke:none;stroke-width:0.0176389" />
    <path
       d="m 223.48306,106.32149 c 0,1.18181 0.0353,1.23472 0.635,1.11125 0.84667,-0.17639 0.88194,-0.26458 0.44097,-1.07597 -0.49389,-0.93486 -1.07597,-0.9525 -1.07597,-0.0353 z"
       id="path1056"
       style="fill:#000000;stroke:none;stroke-width:0.0176389" />
    <path
       d="m 221.96611,123.50177 c -0.98777,0.24694 -0.47625,1.00542 0.635,0.91722 0.54681,-0.0353 1.27,0.0882 1.64042,0.28222 0.93486,0.49389 0.82903,-0.21166 -0.12347,-0.89958 -0.81139,-0.56444 -1.0407,-0.58208 -2.15195,-0.29986 z"
       id="path1058"
       style="fill:#000000;stroke:none;stroke-width:0.0176389" />
    <path
       d="m 217.39764,124.27788 c -0.97014,0.56444 -1.56986,1.44639 -0.98778,1.44639 0.17639,0 0.52917,-0.21167 0.79375,-0.45861 0.24695,-0.26459 0.75848,-0.635 1.12889,-0.84667 0.35278,-0.19403 0.51153,-0.44097 0.35278,-0.52917 -0.17639,-0.0882 -0.75847,0.0882 -1.28764,0.38806 z"
       id="path1060"
       style="fill:#000000;stroke:none;stroke-width:0.0176389" />
    <path
       d="m 220.30806,125.72427 c -0.28222,0.19403 -0.38806,0.35278 -0.19403,0.35278 0.17639,0 -0.12347,0.47625 -0.68792,1.05833 -0.77611,0.81139 -0.88194,1.05833 -0.42333,1.05833 0.47625,0 0.52917,0.15875 0.24695,0.88195 -0.21167,0.5468 -0.21167,0.88194 0,0.88194 0.17638,0 -0.0706,0.38806 -0.54681,0.86431 -0.49389,0.49389 -0.77611,1.09361 -0.65264,1.39347 0.19403,0.49389 0.26458,0.49389 0.74083,0.0176 0.74084,-0.74083 0.91723,-0.44097 0.42334,0.65264 -0.22931,0.51153 -0.74084,0.98778 -1.16417,1.05833 -0.40569,0.0882 -0.26458,0.10584 0.3175,0.0353 0.58208,-0.0529 1.55222,-0.21167 2.16958,-0.33514 1.05834,-0.21167 1.905,0.29986 1.37584,0.82903 -0.12347,0.12347 -0.35278,0.0176 -0.51153,-0.22931 -0.22931,-0.37041 -0.52917,-0.24694 -1.30528,0.45861 -3.33375,3.03389 -3.54541,3.36903 -2.09903,3.36903 0.47625,0 1.00542,-0.26458 1.19945,-0.58208 0.19403,-0.37042 0.79375,-0.59972 1.56986,-0.61736 0.67028,-0.0176 1.16417,-0.14111 1.09361,-0.28222 -0.0882,-0.12348 0.0176,-0.33514 0.21167,-0.45862 0.19403,-0.12347 0.26458,-0.37041 0.15875,-0.56444 -0.10584,-0.17639 -0.38806,-0.22931 -0.58209,-0.0882 -0.21166,0.12347 -0.29986,0.0705 -0.17638,-0.12348 0.12347,-0.19402 0.61736,-0.28222 1.07597,-0.19402 0.47625,0.0882 0.9525,-0.0176 1.09361,-0.22931 0.12347,-0.21167 0.0705,-0.38806 -0.12347,-0.38806 -0.19403,0 -0.26459,-0.26458 -0.14111,-0.58208 0.17638,-0.47625 0.0705,-0.5468 -0.54681,-0.38805 -1.00542,0.26458 -1.27,-0.22931 -0.61736,-1.23473 0.37042,-0.5468 0.42333,-0.97014 0.19403,-1.32291 -0.49389,-0.79375 -0.4057,-1.00542 0.42333,-1.12889 1.02306,-0.14111 1.28764,-0.98778 0.33514,-0.98778 -0.70556,0 -0.91722,-0.51153 -0.75847,-1.71097 0.0353,-0.26459 -0.24695,-0.77611 -0.65264,-1.14653 -0.82903,-0.77611 -0.75847,-0.75847 -1.44639,-0.3175 z"
       id="path1062"
       style="fill:#000000;stroke:none;stroke-width:0.0176389" />
    <path
       d="m 222.42473,138.28316 c -0.28223,0.0529 -1.12889,0.19403 -1.85209,0.3175 -1.72861,0.28222 -1.67569,0.58208 0.28222,1.51694 1.92264,0.93486 2.34598,0.97014 2.2225,0.15875 -0.0529,-0.33514 0.0353,-0.82902 0.19403,-1.09361 0.35278,-0.5468 -0.10583,-1.02305 -0.84666,-0.89958 z"
       id="path1064"
       style="fill:#000000;stroke:none;stroke-width:0.0176389" />
    <path
       d="m 219.62014,142.7458 -1.56986,1.72861 1.0407,-0.24695 c 0.56444,-0.12347 1.46402,-0.52916 1.99319,-0.89958 0.52917,-0.37042 1.44639,-0.67028 2.02847,-0.67028 0.59972,0 1.07598,-0.17639 1.07598,-0.37041 0,-0.21167 -0.14112,-0.28223 -0.33514,-0.17639 -0.17639,0.10583 -0.4057,0.0529 -0.52917,-0.12347 -0.75847,-1.23473 -2.13431,-0.9525 -3.70417,0.75847 z"
       id="path1066"
       style="fill:#000000;stroke:none;stroke-width:0.0176389" />
    <path
       d="m 224.06514,145.10941 -0.98778,0.635 1.51695,0.17639 c 1.81681,0.17639 1.83444,0.17639 1.53458,-0.75847 -0.26458,-0.88195 -0.74083,-0.89959 -2.06375,-0.0529 z"
       id="path1068"
       style="fill:#000000;stroke:none;stroke-width:0.0176389" />
    <path
       d="m 219.07334,146.18538 c -0.12348,0.19403 -0.52917,0.35278 -0.89959,0.35278 -0.72319,0 -0.91722,0.51153 -0.33514,0.88194 0.45862,0.28223 1.62278,-0.37041 1.88737,-1.04069 0.2293,-0.59972 -0.29987,-0.75847 -0.65264,-0.19403 z"
       id="path1070"
       style="fill:#000000;stroke:none;stroke-width:0.0176389" />
    <path
       d="m 177.85125,146.41469 c -0.81139,0.82902 -0.19403,1.95791 0.98778,1.8168 0.70555,-0.0705 1.11125,0 0.98778,0.19403 -0.10584,0.19403 0.14111,0.24694 0.59972,0.14111 0.44097,-0.12347 0.70555,-0.12347 0.58208,0 -0.40569,0.4057 1.71097,1.3582 2.69875,1.21708 1.42875,-0.21166 1.12889,-1.00541 -0.91722,-2.41652 -1.65806,-1.12889 -4.25097,-1.64042 -4.93889,-0.9525 z"
       id="path1072"
       style="fill:#000000;stroke:none;stroke-width:0.0176389" />
    <path
       d="m 221.2782,148.28441 c -0.74084,0.14111 -1.39347,0.33514 -1.48167,0.40569 -0.10583,0.12348 3.75708,0.10584 5.18584,-0.0176 0.14111,0 0.26458,-0.17638 0.26458,-0.37041 0,-0.38806 -1.97556,-0.4057 -3.96875,-0.0176 z"
       id="path1074"
       style="fill:#000000;stroke:none;stroke-width:0.0176389" />
    <path
       d="m 179.0507,148.86649 c -0.0176,0.21167 -0.52917,0.54681 -1.16417,0.7232 -0.98778,0.29986 -1.14653,0.49389 -1.09361,1.42875 l 0.0353,1.07597 -2.20487,-0.17639 c -2.82222,-0.2293 -3.38666,0.44097 -0.61736,0.74083 1.11125,0.12348 3.70417,0.47625 5.75028,0.79375 l 3.72181,0.54681 0.0529,1.30528 0.0529,1.28764 c -0.4297,-0.0386 0.7477,0.99644 0.38806,1.23476 -0.33514,0.21167 -0.26459,0.40569 0.29986,0.75847 1.00541,0.61736 0.30297,1.06379 -0.77301,1.32838 -1.39347,0.35277 -2.11775,2.03846 -1.62386,3.37902 0.46884,1.72106 2.69127,1.7208 2.69127,1.7208 2.37234,0.0333 3.71416,-2.20688 2.02083,-4.09424 -0.59973,-0.65264 -0.99232,-1.04632 -0.19857,-0.92285 1.19945,0.17639 1.92264,2.02847 1.27,3.2632 -0.59972,1.16416 0,1.19944 0.75848,0.0353 0.40569,-0.61736 0.51152,-1.25236 0.33513,-2.11666 -0.15875,-0.91722 -0.0529,-1.46403 0.45862,-2.20486 0.88194,-1.23473 1.28764,-2.55764 0.77611,-2.55764 -0.19403,0 -0.37042,-0.15875 -0.37042,-0.35278 0,-0.19403 0.14111,-0.3175 0.3175,-0.26458 0.15875,0.0529 0.79375,-0.33514 1.39347,-0.86431 0.59973,-0.52917 1.16417,-0.82903 1.27,-0.67028 0.10584,0.15875 6.80861,0.26459 14.9225,0.22931 13.91709,-0.0529 14.74612,-0.0353 15.18709,0.58208 0.26458,0.35278 0.61736,0.54681 0.81139,0.44097 0.21166,-0.14111 0.26458,0.12348 0.12347,0.65264 -0.24695,1.00542 1.60514,2.71639 2.94569,2.71639 0.4057,0 0.82903,0.15875 0.93487,0.33514 0.24694,0.38806 -2.09903,0.3175 -2.48709,-0.0882 -1.06581,-0.74051 -2.69481,1.34257 -2.1947,3.50451 1.30666,2.25419 3.12383,2.48271 4.80526,1.84007 1.83444,-0.56444 2.41653,-2.73403 1.11125,-4.10986 -0.54681,-0.58208 -0.59972,-0.77611 -0.19403,-0.77611 0.9525,0 2.09903,-3.19264 1.32292,-3.66889 -0.77611,-0.47625 0.0176,-1.94028 0.9525,-1.79917 3.12208,0.47625 3.96875,0.52917 3.75708,0.19403 -0.35278,-0.58208 -3.66889,-1.37583 -6.79097,-1.64042 -2.73403,-0.21166 -2.91042,-0.28222 -2.91042,-1.05833 0,-1.12889 -1.46403,-2.61056 -2.59292,-2.61056 -0.58208,0 -0.93486,0.19403 -0.93486,0.51153 0,0.26458 -0.35278,0.54681 -0.77611,0.61736 -0.47625,0.0706 -0.88194,0.44098 -1.02305,0.98778 -0.14112,0.47625 -0.26459,0.635 -0.28223,0.35278 -0.0353,-0.47625 -0.0882,-0.47625 -0.38805,0 -0.26459,0.44097 -1.25236,0.51153 -5.89139,0.42333 -5.60917,-0.10583 -22.36611,0.44097 -26.47598,0.86431 -1.88736,0.19403 -2.18722,0.14111 -2.01083,-0.3175 0.37042,-0.97014 -1.19944,-1.02306 -1.83444,-0.0529 -0.29986,0.45861 -0.74084,0.84667 -0.9525,0.84667 -0.26459,-0.0176 -0.28223,-0.10584 -0.0529,-0.26459 0.72319,-0.52916 0.52917,-1.83444 -0.35278,-2.41652 -0.47625,-0.3175 -0.79375,-0.70556 -0.70555,-0.86431 0.10583,-0.15875 0.0353,-0.38806 -0.17639,-0.51153 -0.19403,-0.12347 -0.35278,-0.0176 -0.35278,0.22931 0,0.2293 -0.22931,0.12347 -0.51153,-0.24695 -0.29986,-0.38805 -0.52916,-0.51152 -0.52916,-0.29986 z m 9.34861,8.81945 c -0.86431,0.635 -1.12889,0.61736 -1.39348,-0.0529 -0.10583,-0.3175 -0.0529,-0.45861 0.14112,-0.33514 0.19402,0.12347 0.61736,0.0529 0.97013,-0.12347 0.86431,-0.49389 1.11126,-0.0882 0.28223,0.51153 z m -1.07598,0.84666 c 0.12348,0.19403 -0.14111,0.49389 -0.59972,0.67028 -0.91722,0.33514 -1.48166,-0.2293 -1.12889,-1.16416 0.21167,-0.56445 1.25236,-0.28223 1.72861,0.49388 z"
       id="path1076"
       style="fill:#000000;stroke:none;stroke-width:0.0176389"
       sodipodi:nodetypes="cccccccccccccccccccccsscssccccscccccsscccssscccccccccccccscccscscsscccc" />
  </g>
</svg>
