 <svg version="1.0" xmlns="http://www.w3.org/2000/svg"  width="300.000000pt" height="290.000000pt" viewBox="0 0 300.000000 290.000000"  preserveAspectRatio="xMidYMid meet">  <g transform="translate(0.000000,290.000000) scale(0.100000,-0.100000)" fill="#000000" stroke="none"> <path d="M477 2650 c-25 -21 -37 -26 -45 -18 -8 8 -19 -6 -41 -52 -32 -66 -30 -79 12 -80 29 0 19 -17 -14 -24 -17 -3 -39 -6 -48 -6 -14 0 -14 2 -1 10 12 8 12 10 -5 10 -11 0 -31 -3 -43 -7 -36 -9 -6 -23 50 -23 54 0 62 -9 59 -65 -2 -37 2 -45 34 -70 22 -18 35 -37 35 -52 0 -26 23 -30 63 -12 20 9 30 6 62 -15 21 -14 42 -26 47 -26 8 0 48 83 48 101 0 18 -21 9 -29 -12 l-8 -22 -21 23 c-12 13 -22 34 -22 47 0 22 3 23 48 18 83 -10 130 38 81 84 -18 17 -20 23 -9 36 18 21 6 54 -37 104 -69 82 -158 103 -216 51z m123 -198 c0 -28 -29 -80 -30 -54 0 7 -5 10 -10 7 -8 -5 -7 -12 2 -23 11 -13 11 -14 -2 -10 -8 2 -19 19 -24 37 -7 25 -6 36 7 49 16 15 17 14 17 -13 0 -23 3 -27 10 -15 5 8 7 23 4 33 -3 11 0 17 10 17 11 0 16 -9 16 -28z m-104 -28 c9 -47 -21 -107 -46 -92 -20 13 -23 44 -8 83 25 64 43 67 54 9z"/> <path d="M890 2223 c0 -9 90 -90 118 -107 8 -5 3 8 -10 28 -13 20 -28 36 -35 36 -6 0 -18 6 -25 13 -29 27 -48 39 -48 30z"/> <path d="M660 2155 c0 -34 166 -208 254 -266 26 -17 51 -40 57 -51 20 -37 4 -115 -35 -171 -20 -29 -36 -59 -36 -68 0 -8 -7 -24 -15 -35 -8 -10 -15 -27 -15 -38 0 -10 -13 -35 -29 -55 -18 -22 -32 -55 -36 -84 -4 -26 -11 -47 -15 -47 -4 0 -7 -11 -7 -25 0 -18 5 -25 18 -25 11 0 19 6 19 13 1 6 9 2 19 -10 l19 -23 -4 40 c-2 22 1 40 6 40 6 0 10 -6 10 -14 0 -33 16 -22 18 12 2 20 9 57 16 82 8 25 17 56 20 70 3 14 24 55 47 90 l41 64 -5 91 c-5 85 -5 87 4 25 5 -36 14 -78 19 -93 5 -16 6 -51 3 -78 -4 -33 -2 -49 6 -49 6 0 11 -9 11 -20 0 -21 -15 -27 -25 -10 -18 28 -40 -14 -23 -44 7 -13 17 -15 43 -10 l34 6 -10 -33 c-6 -19 -13 -42 -16 -52 -4 -12 6 -30 27 -52 19 -19 31 -38 27 -41 -8 -9 -57 31 -79 64 -10 15 -18 22 -18 16 0 -22 32 -103 46 -115 21 -18 17 -31 -6 -17 -11 7 -20 17 -20 23 0 6 -9 18 -20 28 -18 15 -21 15 -26 2 -4 -9 -2 -33 4 -55 5 -22 6 -42 2 -45 -11 -7 -31 46 -33 88 -2 27 -5 33 -15 25 -7 -6 -10 -18 -7 -27 3 -9 -4 -33 -15 -54 -36 -66 -29 -95 78 -307 54 -108 111 -216 125 -241 15 -25 29 -64 31 -85 1 -21 7 -47 11 -58 5 -11 3 -26 -3 -37 -16 -26 -15 -31 6 -27 9 3 39 -4 65 -14 53 -20 122 -23 163 -8 25 10 26 14 21 57 -3 30 -12 51 -23 59 -11 7 -23 17 -27 23 -5 5 -19 21 -33 35 -27 30 -73 135 -79 183 -5 33 -56 186 -80 238 -8 17 -13 37 -11 45 10 54 23 74 65 106 25 19 80 69 122 110 l76 76 76 -88 c41 -49 104 -124 138 -168 66 -81 156 -148 201 -148 13 0 59 5 104 11 68 9 88 9 124 -4 23 -8 71 -15 105 -15 34 0 100 -9 146 -21 66 -17 102 -20 166 -16 66 5 82 3 87 -9 3 -8 18 -20 33 -26 15 -7 33 -20 40 -28 6 -8 15 -12 18 -8 4 4 -6 26 -23 49 -26 34 -29 45 -20 62 13 24 -6 88 -34 113 -10 10 -18 23 -18 30 0 21 -17 26 -98 31 -42 2 -82 9 -89 15 -7 6 -33 8 -58 5 -25 -2 -78 2 -118 9 -39 8 -126 15 -191 17 -115 2 -120 3 -146 29 -34 33 -89 187 -89 248 0 25 -5 66 -11 93 -5 26 -14 68 -20 93 -5 26 -14 52 -20 59 -5 6 -6 15 -2 20 13 14 -101 -2 -193 -28 -111 -31 -172 -40 -180 -27 -3 6 5 10 19 10 13 0 46 12 73 26 l48 25 -43 -6 c-27 -3 -41 -2 -37 4 3 6 -22 8 -67 5 l-73 -6 45 31 c25 17 50 33 55 35 6 3 3 9 -5 15 -13 9 -13 11 1 11 9 0 22 14 29 33 6 17 18 46 27 62 l14 30 -25 -30 c-14 -16 -26 -39 -26 -50 0 -15 -17 -27 -65 -49 -74 -33 -105 -28 -127 19 -8 17 -19 25 -37 25 -19 0 -22 -3 -13 -12 14 -14 17 -82 3 -74 -4 3 -6 17 -4 31 4 17 0 27 -11 31 -9 3 -16 10 -16 15 0 5 -18 26 -41 46 -31 28 -40 43 -36 60 2 13 3 23 2 23 -1 0 -22 -7 -47 -16 l-45 -15 -70 68 c-66 64 -182 143 -210 143 -7 0 -13 -7 -13 -15z m529 -461 c28 -14 31 -18 18 -33 -7 -9 -35 -42 -62 -74 -26 -32 -50 -56 -52 -53 -2 2 8 29 22 61 14 32 25 67 25 80 0 18 7 35 15 35 1 0 16 -7 34 -16z m1331 -594 c0 -5 -12 -10 -27 -10 -22 0 -25 2 -13 10 20 13 40 13 40 0z"/> <path d="M825 2125 c22 -14 45 -25 50 -25 6 0 -8 11 -30 25 -22 13 -44 24 -50 24 -5 0 8 -11 30 -24z"/> <path d="M1117 2017 l-28 -12 29 -28 30 -28 4 36 c5 43 1 47 -35 32z"/> <path d="M1444 1768 l-19 -21 28 18 c28 18 33 25 19 25 -5 0 -17 -10 -28 -22z"/> <path d="M771 1364 c0 -11 3 -14 6 -6 3 7 2 16 -1 19 -3 4 -6 -2 -5 -13z"/> <path d="M2674 1166 c-4 -9 -4 -38 -1 -63 3 -27 0 -55 -7 -65 -9 -16 -7 -23 17 -42 34 -27 50 -101 26 -118 -11 -8 -11 -11 -1 -15 9 -4 10 -8 2 -18 -8 -9 -6 -24 6 -54 13 -32 21 -41 40 -41 20 0 24 5 24 32 0 67 -70 368 -91 392 -5 5 -11 2 -15 -8z m11 -136 c3 -5 4 -10 1 -10 -3 0 -8 5 -11 10 -3 6 -4 10 -1 10 3 0 8 -4 11 -10z"/> <path d="M1101 467 c-20 -12 -29 -23 -22 -25 8 -3 17 1 21 8 4 7 13 9 19 6 6 -4 14 0 17 9 10 24 3 24 -35 2z"/> <path d="M945 390 c-3 -6 -16 -10 -28 -11 l-22 0 21 -9 c12 -5 25 -13 29 -19 4 -7 85 -11 241 -11 194 0 245 3 294 18 33 9 60 20 60 24 0 4 -107 6 -237 5 -131 -1 -264 1 -295 5 -34 4 -60 3 -63 -2z"/> <path d="M1457 323 c62 -4 63 -5 82 -43 l18 -38 -161 -4 c-88 -2 -169 0 -178 4 -9 4 -19 4 -22 0 -7 -11 -131 -14 -213 -6 l-62 6 14 35 c8 20 15 37 15 39 0 12 -91 2 -104 -12 -26 -25 -20 -42 15 -40 38 1 60 -24 43 -52 -11 -17 7 -17 372 -16 372 2 499 8 509 24 2 4 -23 10 -58 13 -53 5 -65 3 -80 -14 -33 -35 -86 -13 -72 30 6 21 38 36 55 26 6 -4 9 4 8 18 -2 21 -9 26 -46 31 -25 3 -79 5 -121 4 l-76 -2 62 -3z"/> <path d="M1173 313 c4 -3 10 -3 14 0 3 4 0 7 -7 7 -7 0 -10 -3 -7 -7z"/> <path d="M1213 313 c9 -2 25 -2 35 0 9 3 1 5 -18 5 -19 0 -27 -2 -17 -5z"/> <path d="M1595 240 c-3 -6 1 -13 10 -16 19 -8 30 0 20 15 -8 14 -22 14 -30 1z"/> <path d="M861 231 c-10 -7 -10 -10 -1 -16 6 -4 16 -3 22 3 13 13 -4 23 -21 13z"/> <path d="M710 221 c-36 -10 -15 -18 69 -27 73 -7 73 -7 60 15 -11 17 -23 21 -59 20 -25 -1 -56 -4 -70 -8z"/> </g> </svg> 