 <svg version="1.0" xmlns="http://www.w3.org/2000/svg"  width="642.000000pt" height="900.000000pt" viewBox="0 0 642.000000 900.000000"  preserveAspectRatio="xMidYMid meet">  <g transform="translate(0.000000,900.000000) scale(0.100000,-0.100000)" fill="#000000" stroke="none"> <path d="M1902 8609 c-9 -12 -32 -35 -50 -52 -39 -37 -52 -78 -38 -129 13 -48 2 -59 -28 -27 -29 31 -138 69 -144 50 -2 -7 -17 -28 -33 -45 l-28 -33 21 -42 c23 -48 19 -59 -17 -43 -15 7 -27 8 -30 2 -4 -6 -19 -10 -36 -10 -22 0 -29 -5 -29 -19 0 -10 -7 -21 -15 -25 -8 -3 -15 -13 -15 -23 0 -10 -12 -32 -27 -48 -67 -71 -114 -140 -109 -159 3 -11 1 -25 -5 -32 -5 -7 -12 -22 -14 -35 -2 -12 -14 -32 -26 -45 -11 -12 -23 -37 -25 -56 -9 -65 -16 -98 -25 -104 -13 -7 -11 -58 2 -71 8 -8 8 -13 0 -17 -31 -19 8 -79 73 -111 48 -25 70 -57 62 -89 -3 -14 -2 -35 3 -48 11 -28 101 -118 118 -118 7 0 13 -4 13 -9 0 -4 19 -11 41 -14 26 -3 52 -16 70 -33 l29 -28 0 -127 c0 -126 0 -128 35 -195 20 -37 47 -82 60 -100 14 -18 25 -36 25 -41 1 -22 113 -141 170 -180 95 -64 100 -69 100 -105 0 -51 19 -108 45 -134 19 -19 35 -24 78 -24 l54 0 17 -42 c10 -24 24 -56 33 -73 8 -16 34 -66 56 -110 35 -69 44 -100 63 -220 13 -77 34 -180 47 -230 36 -130 47 -174 57 -225 5 -25 19 -74 30 -110 11 -36 25 -85 30 -110 5 -25 18 -83 30 -130 36 -149 60 -280 60 -324 0 -41 30 -146 49 -170 4 -6 23 -69 41 -140 32 -124 32 -131 20 -197 -11 -57 -11 -79 0 -126 7 -32 17 -65 21 -74 6 -11 -1 -44 -17 -90 -32 -96 -40 -178 -22 -254 9 -40 13 -118 12 -235 -2 -270 -10 -338 -56 -470 -44 -127 -59 -226 -78 -525 -14 -232 -26 -727 -20 -853 l5 -103 49 -47 c47 -44 49 -47 36 -76 -38 -93 -45 -138 -41 -253 1 -12 21 -45 46 -73 43 -48 44 -52 31 -78 -47 -92 -60 -236 -27 -300 76 -147 230 -144 472 11 202 129 315 257 391 440 18 44 39 82 46 85 8 2 25 -6 38 -20 25 -24 25 -25 8 -67 -15 -39 -15 -44 1 -87 32 -84 104 -122 176 -91 100 43 120 148 44 231 -26 28 -40 36 -68 36 -38 0 -49 9 -76 66 -17 35 -18 40 -3 63 12 17 16 42 14 85 -3 60 -2 62 83 204 47 79 85 145 85 147 0 2 13 24 30 48 16 25 30 47 30 50 0 3 34 62 75 132 41 69 75 128 75 130 0 2 19 36 43 77 24 40 47 80 51 88 4 8 12 24 19 35 7 11 33 58 58 105 26 47 57 103 69 125 13 22 47 84 77 138 66 119 160 270 219 353 43 61 124 122 144 109 6 -3 10 -28 10 -56 0 -95 57 -159 141 -159 81 0 142 74 131 161 -5 41 -68 109 -100 109 -52 0 -72 13 -108 67 -38 57 -41 88 -16 158 32 88 46 233 47 465 l0 235 -33 68 c-49 99 -103 122 -165 68 -37 -33 -74 -101 -111 -205 -14 -38 -28 -71 -31 -74 -10 -11 -93 37 -146 84 -82 73 -97 104 -103 215 -5 105 -8 117 -48 175 -27 40 -28 47 -28 164 l0 122 43 45 c23 25 67 61 97 81 30 19 103 84 162 144 93 95 111 108 140 108 46 0 142 35 194 70 100 70 187 215 222 370 l18 85 32 -3 c37 -2 38 0 14 70 -40 115 -52 157 -52 178 0 27 -26 120 -46 168 -8 18 -14 40 -14 48 0 36 -55 130 -105 181 -41 40 -55 62 -55 83 0 28 -38 70 -65 70 -6 0 -53 18 -104 40 -50 22 -105 40 -120 40 -29 0 -68 41 -56 60 8 12 73 33 84 26 18 -12 63 15 123 72 66 63 148 164 148 182 0 6 25 37 55 69 30 32 55 65 55 73 0 8 -11 32 -25 53 -14 20 -44 69 -66 109 -51 92 -111 145 -229 204 l-95 47 -116 1 c-136 2 -148 6 -324 115 -161 100 -182 109 -325 129 -40 6 -84 16 -99 24 -30 16 -70 31 -191 74 -80 28 -120 37 -345 77 -49 9 -112 20 -140 25 -27 5 -84 12 -125 16 -69 6 -78 9 -110 43 -19 20 -47 42 -62 48 -23 11 -28 19 -28 50 0 21 -9 55 -20 76 -12 21 -20 56 -20 83 0 37 -5 51 -29 75 -34 33 -40 50 -47 114 -4 51 -19 85 -36 85 -6 0 -22 -12 -36 -27 -24 -26 -25 -26 -38 -8 -8 11 -19 36 -25 57 -11 41 -32 49 -69 26 -16 -11 -22 -9 -34 7 -14 20 -15 20 -44 -2 -32 -24 -40 -26 -94 -24 -33 1 -37 4 -45 39 -7 30 -13 37 -33 37 -26 0 -49 9 -135 51 -62 30 -80 30 -103 3z m428 -173 c0 -8 -4 -17 -9 -21 -12 -7 -24 12 -16 25 9 15 25 12 25 -4z m-572 -90 c4 -16 -32 -24 -41 -8 -2 4 -2 1 -1 -5 5 -19 -36 -16 -43 3 -4 11 2 23 18 35 20 15 27 16 44 5 11 -7 21 -21 23 -30z m-239 -177 c-29 -18 -44 -9 -19 11 15 11 26 15 29 8 2 -6 -3 -14 -10 -19z m1275 -1945 c20 -8 20 -20 1 -28 -21 -8 -45 3 -45 20 0 15 18 18 44 8z m155 -960 c28 -37 51 -72 51 -78 -1 -6 -9 -29 -20 -51 -17 -34 -19 -63 -20 -197 0 -114 -4 -166 -14 -190 -8 -18 -17 -45 -21 -60 -6 -29 -28 -37 -42 -15 -18 28 -40 179 -32 230 4 29 10 133 14 231 3 99 8 183 11 188 10 16 23 6 73 -58z m752 -1330 c28 -30 64 -28 106 6 14 11 36 20 49 20 24 0 24 -1 24 -107 0 -60 7 -139 15 -178 8 -38 15 -92 15 -120 0 -68 18 -187 30 -199 6 -6 10 -22 10 -36 0 -15 16 -64 36 -110 42 -96 41 -123 -5 -192 -17 -25 -31 -48 -31 -51 0 -3 -20 -40 -45 -81 -25 -42 -45 -78 -45 -81 0 -2 -34 -61 -75 -130 -41 -70 -75 -129 -75 -131 0 -2 -26 -48 -58 -101 -32 -54 -61 -106 -65 -116 -3 -9 -12 -17 -18 -17 -13 0 -6 171 11 285 21 139 32 391 21 463 -10 66 -9 79 20 194 l32 123 -2 283 c-1 155 1 287 4 292 10 16 20 12 46 -16z"/> </g> </svg> 